<svg version="1.1" id="Layer_1" xmlns="http://www.w3.org/2000/svg" xmlns:xlink="http://www.w3.org/1999/xlink" x="0px" y="0px"
	 viewBox="0 0 38 38" style="enable-background:new 0 0 38 38;" xml:space="preserve">
<style type="text/css">
	.st0{fill:#1D404E;}
	.st1{fill:#FFFFFF;}
</style>
<rect class="st0" width="38" height="38"/>
<path class="st1" d="M11.1,26.3c0,0.9,0.8,1.7,1.7,1.7h12.4c0.9,0,1.7-0.8,1.7-1.7v-9.6H11.1V26.3z M22.4,19.4
	c0-0.2,0.2-0.4,0.4-0.4h1.4c0.2,0,0.4,0.2,0.4,0.4v1.4c0,0.2-0.2,0.4-0.4,0.4h-1.4c-0.2,0-0.4-0.2-0.4-0.4V19.4z M22.4,23.9
	c0-0.2,0.2-0.4,0.4-0.4h1.4c0.2,0,0.4,0.2,0.4,0.4v1.4c0,0.2-0.2,0.4-0.4,0.4h-1.4c-0.2,0-0.4-0.2-0.4-0.4V23.9z M17.9,19.4
	c0-0.2,0.2-0.4,0.4-0.4h1.4c0.2,0,0.4,0.2,0.4,0.4v1.4c0,0.2-0.2,0.4-0.4,0.4h-1.4c-0.2,0-0.4-0.2-0.4-0.4V19.4z M17.9,23.9
	c0-0.2,0.2-0.4,0.4-0.4h1.4c0.2,0,0.4,0.2,0.4,0.4v1.4c0,0.2-0.2,0.4-0.4,0.4h-1.4c-0.2,0-0.4-0.2-0.4-0.4V23.9z M13.4,19.4
	c0-0.2,0.2-0.4,0.4-0.4h1.4c0.2,0,0.4,0.2,0.4,0.4v1.4c0,0.2-0.2,0.4-0.4,0.4h-1.4c-0.2,0-0.4-0.2-0.4-0.4V19.4z M13.4,23.9
	c0-0.2,0.2-0.4,0.4-0.4h1.4c0.2,0,0.4,0.2,0.4,0.4v1.4c0,0.2-0.2,0.4-0.4,0.4h-1.4c-0.2,0-0.4-0.2-0.4-0.4V23.9z M25.2,12.2h-1.7
	v-1.7c0-0.3-0.3-0.6-0.6-0.6h-1.1c-0.3,0-0.6,0.3-0.6,0.6v1.7h-4.5v-1.7c0-0.3-0.3-0.6-0.6-0.6h-1.1c-0.3,0-0.6,0.3-0.6,0.6v1.7
	h-1.7c-0.9,0-1.7,0.8-1.7,1.7v1.7h15.8v-1.7C26.9,13,26.1,12.2,25.2,12.2z"/>
</svg>
